<svg xmlns="http://www.w3.org/2000/svg" width="16" height="14" fill="none" viewBox="0 0 16 14"><path fill="#626786" d="M14 3H3.333a2.008 2.008 0 0 1-1.49-.666c.367-.41.9-.667 1.49-.667h12a.666.666 0 1 0 0-1.334h-12A3.334 3.334 0 0 0 0 3.667v6.666a3.334 3.334 0 0 0 3.333 3.334H14a2 2 0 0 0 2-2V5a2 2 0 0 0-2-2zm.667 8.667a.667.667 0 0 1-.667.666H3.333c-1.102 0-2-.897-2-2V3.665c.57.426 1.27.668 2 .668H14c.368 0 .667.3.667.667v6.667zm-1.334-3.334a.667.667 0 1 1-1.333 0 .667.667 0 0 1 1.333 0z"/></svg>