<?xml version="1.0" encoding="utf-8"?>
<!-- Generator: Adobe Illustrator 23.0.0, SVG Export Plug-In . SVG Version: 6.00 Build 0)  -->
<svg version="1.1" id="Layer_1" xmlns="http://www.w3.org/2000/svg" xmlns:xlink="http://www.w3.org/1999/xlink" x="0px" y="0px"
	 width="40px" height="40px" viewBox="0 0 40 40" style="enable-background:new 0 0 40 40;" xml:space="preserve">
<style type="text/css">
	.st0{clip-path:url(#SVGID_2_);}
	.st1{fill:#FFFFFF;stroke:#3C3F50;stroke-width:2.5;}
	.st2{fill:#3C3F50;}
</style>
<g>
	<defs>
		<rect id="SVGID_1_" width="40" height="40"/>
	</defs>
	<clipPath id="SVGID_2_">
		<use xlink:href="#SVGID_1_"  style="overflow:visible;"/>
	</clipPath>
	<g class="st0">
		<path class="st1" d="M12,9.3h16c1.5,0,2.8,1.2,2.8,2.8v16c0,1.5-1.2,2.8-2.8,2.8H12c-1.5,0-2.8-1.2-2.8-2.8V12
			C9.3,10.5,10.5,9.3,12,9.3z"/>
		<path class="st2" d="M15,16.2c0-0.7,0.6-1.2,1.2-1.2c0.7,0,1.2,0.6,1.2,1.2v6.5c0,0.7-0.6,1.2-1.2,1.2c-0.7,0-1.2-0.6-1.2-1.2
			V16.2z M18.8,16.2c0-0.6,0.6-1.2,1.2-1.2s1.2,0.5,1.2,1.2v3.2c0,0.6-0.6,1.2-1.2,1.2c-0.7,0-1.2-0.5-1.2-1.2V16.2z M22.5,19.6
			c0-0.6,0.6-1.2,1.2-1.2c0.7,0,1.2,0.5,1.2,1.2v3.2c0,0.6-0.6,1.2-1.2,1.2c-0.7,0-1.2-0.5-1.2-1.2V19.6z"/>
	</g>
</g>
</svg>
