<svg xmlns="http://www.w3.org/2000/svg" width="16" height="16" fill="none" viewBox="0 0 16 16"><g fill="#626786" clip-path="url(#a)"><path d="M15.333 14.667h-12a2 2 0 0 1-2-2v-12A.667.667 0 1 0 0 .667v12A3.337 3.337 0 0 0 3.333 16h12a.666.666 0 1 0 0-1.333z"/><path d="M4 13.333a.667.667 0 0 0 .667-.666V8a.667.667 0 1 0-1.334 0v4.667a.667.667 0 0 0 .667.666zm2.667-6.666v6a.667.667 0 0 0 1.333 0v-6a.667.667 0 0 0-1.333 0zm3.333 2v4a.667.667 0 1 0 1.333 0v-4a.667.667 0 1 0-1.333 0zM13.333 6v6.667a.667.667 0 0 0 1.334 0V6a.667.667 0 1 0-1.334 0zM4 6c.177 0 .346-.07.471-.195l2.391-2.391a.683.683 0 0 1 .943 0l1.448 1.448a2 2 0 0 0 2.828 0l3.724-3.724a.667.667 0 0 0-.943-.943L11.138 3.92a.667.667 0 0 1-.943 0L8.747 2.47a2 2 0 0 0-2.828 0L3.53 4.862A.667.667 0 0 0 4 6z"/></g><defs><clipPath id="a"><path fill="#fff" d="M0 0h16v16H0z"/></clipPath></defs></svg>