<svg xmlns="http://www.w3.org/2000/svg" width="16" height="15" fill="none" viewBox="0 0 16 15"><path fill="#626786" d="M2.667 4a1.988 1.988 0 0 1-1.415-.586l-1.03-.916a.667.667 0 0 1 .889-.996l1.056.943a.667.667 0 0 0 .971.026L5.541.184a.667.667 0 0 1 .918.965L4.067 3.425a1.976 1.976 0 0 1-1.4.575zM16 2.667A.667.667 0 0 0 15.333 2H8.667a.667.667 0 1 0 0 1.333h6.666A.667.667 0 0 0 16 2.667zM4.067 8.759l2.392-2.276a.666.666 0 1 0-.918-.966l-2.4 2.288a.682.682 0 0 1-.943 0l-1.06-1.057a.667.667 0 0 0-.943.943l1.057 1.056a2 2 0 0 0 2.817.012h-.002zM16 8a.667.667 0 0 0-.667-.667H8.667a.667.667 0 0 0 0 1.334h6.666A.667.667 0 0 0 16 8zM4.067 14.092l2.39-2.276a.667.667 0 1 0-.919-.965l-2.4 2.287a.667.667 0 0 1-.97-.027L1.11 12.17a.667.667 0 1 0-.888.996l1.029.916a2 2 0 0 0 2.817.011h-.002zM16 13.333a.667.667 0 0 0-.667-.666H8.667a.667.667 0 1 0 0 1.333h6.666a.667.667 0 0 0 .667-.667z"/></svg>