<svg xmlns="http://www.w3.org/2000/svg" width="16" height="16" fill="none" viewBox="0 0 16 16"><path fill="#626786" d="M8.082 15.938c-.334 0-.667-.022-.999-.064A8.067 8.067 0 0 1 .126 8.917 7.984 7.984 0 0 1 6.386.052a1.127 1.127 0 0 1 1.165.44 1.164 1.164 0 0 1 .046 1.284 4.859 4.859 0 0 0-.605 3.18 4.804 4.804 0 0 0 4.015 4.016 4.758 4.758 0 0 0 3.18-.615 1.165 1.165 0 0 1 1.284.065 1.108 1.108 0 0 1 .44 1.155 7.975 7.975 0 0 1-7.829 6.361zM6.167 1.583a6.646 6.646 0 1 0 8.25 8.25 6.178 6.178 0 0 1-8.81-4.583 6.188 6.188 0 0 1 .56-3.667z"/></svg>