<svg xmlns="http://www.w3.org/2000/svg" width="26" height="25" fill="none" viewBox="0 0 26 25"><ellipse cx="12.91" cy="12.5" fill="#1F3F49" rx="12.38" ry="12.5"/><path fill="#fff" d="M14.974 19.965h-4.126c-3.733 0-5.328-1.61-5.328-5.382v-4.166c0-3.771 1.595-5.382 5.328-5.382h4.126c3.733 0 5.328 1.61 5.328 5.382v4.166c0 3.771-1.595 5.382-5.328 5.382zM10.848 6.076c-3.17 0-4.297 1.14-4.297 4.34v4.167c0 3.202 1.127 4.34 4.297 4.34h4.126c3.17 0 4.297-1.138 4.297-4.34v-4.166c0-3.202-1.128-4.34-4.297-4.34h-4.126z"/><path fill="#fff" d="M15.317 17.535a1.9 1.9 0 0 1-1.89-1.91v-6.25a1.9 1.9 0 0 1 1.89-1.91 1.9 1.9 0 0 1 1.891 1.91v6.25a1.9 1.9 0 0 1-1.89 1.91zm0-9.028a.864.864 0 0 0-.86.868v6.25c0 .23.091.451.253.614a.855.855 0 0 0 1.215 0 .873.873 0 0 0 .252-.614v-6.25a.864.864 0 0 0-.86-.868zm-4.813 9.028a1.9 1.9 0 0 1-1.89-1.91v-2.43a1.9 1.9 0 0 1 1.89-1.91 1.9 1.9 0 0 1 1.891 1.91v2.43a1.9 1.9 0 0 1-1.89 1.91zm0-5.209a.864.864 0 0 0-.86.868v2.431c0 .23.091.451.253.614a.855.855 0 0 0 1.215 0 .872.872 0 0 0 .252-.614v-2.43a.864.864 0 0 0-.86-.869z"/></svg>