<svg xmlns="http://www.w3.org/2000/svg" width="16" height="16" fill="none" viewBox="0 0 16 16"><path fill="#626786" d="M16 15.333a.667.667 0 0 1-.667.667H.667a.666.666 0 1 1 0-1.333h14.666a.667.667 0 0 1 .667.666zM.194 5.701a1.629 1.629 0 0 1 .102-1.71 3.144 3.144 0 0 1 1.112-1l5-2.603a3.45 3.45 0 0 1 3.183 0l5 2.605c.446.239.828.582 1.112 1a1.63 1.63 0 0 1 .102 1.71 1.809 1.809 0 0 1-1.61.964H14V12h.667a.666.666 0 1 1 0 1.333H1.333a.667.667 0 1 1 0-1.333H2V6.667h-.195A1.809 1.809 0 0 1 .194 5.7zM3.334 12h2V6.667h-2V12zm3.333-5.333V12h2.666V6.667H6.667zm6 0h-2V12h2V6.667zM1.375 5.083a.478.478 0 0 0 .43.25h12.39a.478.478 0 0 0 .43-.25.301.301 0 0 0-.016-.333 1.8 1.8 0 0 0-.633-.576l-5-2.605a2.117 2.117 0 0 0-1.95 0l-5 2.605a1.808 1.808 0 0 0-.633.577.301.301 0 0 0-.018.332z"/></svg>