<svg xmlns="http://www.w3.org/2000/svg" width="17" height="16" fill="none" viewBox="0 0 17 16"><path fill="#626786" d="M8.32 10.667a2.853 2.853 0 0 1-1.54-.45A2.693 2.693 0 0 1 5.757 9.02 2.572 2.572 0 0 1 5.6 7.48c.107-.518.371-.993.759-1.366a2.81 2.81 0 0 1 1.42-.73 2.877 2.877 0 0 1 1.602.152c.507.202.94.544 1.245.982.305.439.467.955.467 1.482 0 .707-.292 1.386-.812 1.886a2.83 2.83 0 0 1-1.961.78zm0-4a1.43 1.43 0 0 0-.77.224 1.346 1.346 0 0 0-.511.599 1.286 1.286 0 0 0-.079.77c.053.259.186.496.38.683.193.186.44.313.71.365.268.051.547.025.8-.076a1.38 1.38 0 0 0 .623-.491 1.297 1.297 0 0 0-.172-1.684c-.26-.25-.613-.39-.981-.39zm4.16 8.666c0-1.06-.438-2.078-1.218-2.828a4.246 4.246 0 0 0-2.942-1.172 4.246 4.246 0 0 0-2.942 1.172 3.924 3.924 0 0 0-1.218 2.828c0 .177.073.347.203.472s.306.195.49.195.36-.07.49-.195a.654.654 0 0 0 .204-.472c0-.707.292-1.385.812-1.885a2.83 2.83 0 0 1 1.961-.781c.736 0 1.44.28 1.961.78.52.5.812 1.18.812 1.886 0 .177.073.347.203.472s.307.195.49.195c.185 0 .36-.07.49-.195a.654.654 0 0 0 .204-.472zm0-10a2.853 2.853 0 0 1-1.54-.45 2.692 2.692 0 0 1-1.022-1.196 2.572 2.572 0 0 1-.158-1.54c.107-.518.371-.993.759-1.366a2.809 2.809 0 0 1 1.42-.73 2.876 2.876 0 0 1 1.602.152c.507.202.94.544 1.245.982.305.439.467.954.467 1.482 0 .707-.292 1.385-.812 1.885a2.83 2.83 0 0 1-1.961.781zm0-4a1.43 1.43 0 0 0-.77.225 1.346 1.346 0 0 0-.511.598 1.285 1.285 0 0 0-.079.77c.054.26.186.497.38.683.193.187.44.314.71.365.268.052.547.025.8-.075.254-.101.47-.272.623-.492a1.298 1.298 0 0 0-.172-1.683c-.26-.25-.613-.39-.981-.39zM16.64 10a3.927 3.927 0 0 0-1.22-2.827A4.25 4.25 0 0 0 12.48 6c-.184 0-.36.07-.49.195a.654.654 0 0 0-.203.472c0 .176.073.346.203.471s.306.195.49.195c.736 0 1.44.281 1.961.781.52.5.812 1.179.812 1.886 0 .177.073.346.203.471a.71.71 0 0 0 .98 0A.654.654 0 0 0 16.64 10zM4.16 5.333a2.853 2.853 0 0 1-1.54-.45 2.692 2.692 0 0 1-1.022-1.196 2.572 2.572 0 0 1-.158-1.54c.107-.518.371-.993.759-1.366a2.81 2.81 0 0 1 1.42-.73 2.877 2.877 0 0 1 1.602.152c.507.202.94.544 1.245.982.305.439.467.954.467 1.482 0 .707-.292 1.385-.812 1.885a2.83 2.83 0 0 1-1.961.781zm0-4a1.43 1.43 0 0 0-.77.225 1.346 1.346 0 0 0-.511.598 1.286 1.286 0 0 0-.079.77c.053.26.186.497.38.683.193.187.44.314.71.365.268.052.547.025.8-.075.254-.101.47-.272.623-.492a1.297 1.297 0 0 0-.172-1.683c-.26-.25-.613-.39-.981-.39zM1.387 10c0-.707.292-1.386.812-1.886a2.83 2.83 0 0 1 1.961-.78c.184 0 .36-.07.49-.196a.654.654 0 0 0 .203-.471.654.654 0 0 0-.203-.472A.708.708 0 0 0 4.16 6a4.25 4.25 0 0 0-2.94 1.173A3.928 3.928 0 0 0 0 10c0 .177.073.346.203.471a.708.708 0 0 0 .98 0A.654.654 0 0 0 1.388 10z"/></svg>