<svg width="16" height="14" viewBox="0 0 16 14" fill="none" xmlns="http://www.w3.org/2000/svg">
<path d="M14.8284 3.33333H10.8284M4.16178 3.33333H1.49512M14.8284 10.6667H12.1618M5.49512 10.6667H1.49512M6.82845 5.66667C7.13487 5.66667 7.43828 5.60631 7.72138 5.48905C8.00447 5.37179 8.2617 5.19992 8.47837 4.98325C8.69504 4.76658 8.86691 4.50935 8.98417 4.22626C9.10143 3.94317 9.16178 3.63975 9.16178 3.33333C9.16178 3.02692 9.10143 2.7235 8.98417 2.44041C8.86691 2.15731 8.69504 1.90009 8.47837 1.68342C8.2617 1.46675 8.00447 1.29488 7.72138 1.17761C7.43828 1.06035 7.13487 1 6.82845 1C6.20961 1 5.61612 1.24583 5.17853 1.68342C4.74095 2.121 4.49512 2.71449 4.49512 3.33333C4.49512 3.95217 4.74095 4.54566 5.17853 4.98325C5.61612 5.42083 6.20961 5.66667 6.82845 5.66667ZM9.49512 13C10.114 13 10.7074 12.7542 11.145 12.3166C11.5826 11.879 11.8284 11.2855 11.8284 10.6667C11.8284 10.0478 11.5826 9.45434 11.145 9.01675C10.7074 8.57917 10.114 8.33333 9.49512 8.33333C8.87628 8.33333 8.28279 8.57917 7.8452 9.01675C7.40762 9.45434 7.16178 10.0478 7.16178 10.6667C7.16178 11.2855 7.40762 11.879 7.8452 12.3166C8.28279 12.7542 8.87628 13 9.49512 13Z" stroke="#4F4E6A" stroke-width="1.5" stroke-miterlimit="10" stroke-linecap="round" stroke-linejoin="round"/>
</svg>
