<svg xmlns="http://www.w3.org/2000/svg" width="146" height="40" fill="none" viewBox="0 0 146 40"><path fill="#3C3F50" d="M47.3 27v-2.42h3.58c.907 0 1.7-.187 2.38-.56a4.018 4.018 0 0 0 1.58-1.62c.387-.693.58-1.513.58-2.46 0-.92-.193-1.72-.58-2.4a4.017 4.017 0 0 0-1.6-1.6c-.68-.387-1.467-.58-2.36-.58h-3.64v-2.42h3.68c1.04 0 2 .173 2.88.52.893.347 1.667.84 2.32 1.48a6.455 6.455 0 0 1 1.54 2.22c.373.853.56 1.787.56 2.8a7.052 7.052 0 0 1-.56 2.82c-.36.853-.867 1.6-1.52 2.24a6.933 6.933 0 0 1-2.32 1.46c-.88.347-1.833.52-2.86.52H47.3zm-1.86 0V12.94h2.72V27h-2.72zm18.701.2c-.88 0-1.673-.22-2.38-.66a4.6 4.6 0 0 1-1.66-1.8c-.4-.76-.6-1.613-.6-2.56 0-.96.2-1.82.6-2.58a4.6 4.6 0 0 1 1.66-1.8c.707-.44 1.5-.66 2.38-.66.694 0 1.314.14 1.86.42.547.28.98.673 1.3 1.18.334.493.514 1.053.54 1.68v3.48a3.212 3.212 0 0 1-.54 1.7c-.32.493-.753.887-1.3 1.18-.546.28-1.166.42-1.86.42zm.48-2.42c.734 0 1.327-.24 1.78-.72.454-.493.68-1.127.68-1.9 0-.507-.106-.953-.32-1.34-.2-.4-.486-.707-.86-.92-.36-.227-.786-.34-1.28-.34-.48 0-.906.113-1.28.34-.36.213-.646.52-.86.92-.2.387-.3.833-.3 1.34 0 .52.1.98.3 1.38.214.387.5.693.86.92.374.213.8.32 1.28.32zm2.32 2.22v-2.6l.42-2.36-.42-2.32v-2.38h2.6V27h-2.6zm8.238.22a6.082 6.082 0 0 1-1.62-.22 6.33 6.33 0 0 1-1.44-.6 4.69 4.69 0 0 1-1.14-.96l1.56-1.58c.334.373.72.653 1.16.84.44.187.927.28 1.46.28.427 0 .747-.06.96-.18.227-.12.34-.3.34-.54 0-.267-.12-.473-.36-.62-.226-.147-.526-.267-.9-.36l-1.18-.34a7.42 7.42 0 0 1-1.16-.5c-.373-.213-.68-.5-.92-.86-.226-.373-.34-.853-.34-1.44 0-.613.147-1.147.44-1.6.307-.453.74-.807 1.3-1.06s1.22-.38 1.98-.38c.8 0 1.52.14 2.16.42.654.28 1.194.7 1.62 1.26l-1.58 1.58a2.626 2.626 0 0 0-1-.78c-.36-.16-.753-.24-1.18-.24-.386 0-.686.06-.9.18-.2.12-.3.287-.3.5 0 .24.114.427.34.56.24.133.547.253.92.36.374.093.76.207 1.16.34.414.12.8.293 1.16.52.374.227.674.527.9.9.24.373.36.853.36 1.44 0 .947-.34 1.7-1.02 2.26-.68.547-1.606.82-2.78.82zM87.246 27v-5.54c0-.573-.18-1.04-.54-1.4-.36-.36-.827-.54-1.4-.54-.373 0-.707.08-1 .24-.293.16-.527.387-.7.68-.16.293-.24.633-.24 1.02l-1.02-.52c0-.76.16-1.42.48-1.98a3.45 3.45 0 0 1 1.32-1.34c.573-.32 1.227-.48 1.96-.48.733 0 1.38.16 1.94.48.573.32 1.02.76 1.34 1.32.32.56.48 1.207.48 1.94V27h-2.62zm-6.5 0V12.54h2.62V27h-2.62zm16.59.2a3.99 3.99 0 0 1-1.88-.44 3.535 3.535 0 0 1-1.34-1.2 3.29 3.29 0 0 1-.54-1.7v-3.44a3.182 3.182 0 0 1 .54-1.68c.347-.507.8-.9 1.36-1.18a4.1 4.1 0 0 1 1.86-.42c.894 0 1.694.22 2.4.66a4.6 4.6 0 0 1 1.66 1.8c.414.76.62 1.62.62 2.58 0 .947-.206 1.8-.62 2.56a4.6 4.6 0 0 1-1.66 1.8c-.706.44-1.506.66-2.4.66zm-.44-2.42c.48 0 .9-.107 1.26-.32a2.28 2.28 0 0 0 .86-.92c.214-.4.32-.86.32-1.38 0-.507-.106-.953-.32-1.34-.2-.4-.486-.707-.86-.92-.373-.227-.8-.34-1.28-.34s-.906.113-1.28.34c-.36.213-.646.52-.86.92-.2.387-.3.833-.3 1.34 0 .52.1.98.3 1.38.214.387.507.693.88.92.374.213.8.32 1.28.32zM91.976 27V12.54h2.62v7.18l-.44 2.32.42 2.36V27h-2.6zm16.298.2c-.973 0-1.853-.22-2.64-.66a5.292 5.292 0 0 1-1.86-1.82c-.453-.773-.68-1.633-.68-2.58 0-.947.227-1.793.68-2.54a4.932 4.932 0 0 1 1.86-1.8c.787-.453 1.66-.68 2.62-.68.987 0 1.867.227 2.64.68a4.918 4.918 0 0 1 1.86 1.8c.454.747.68 1.593.68 2.54 0 .947-.226 1.807-.68 2.58a5.07 5.07 0 0 1-1.86 1.82c-.773.44-1.646.66-2.62.66zm-.02-2.44c.494 0 .927-.107 1.3-.32.387-.227.68-.533.88-.92.214-.4.32-.853.32-1.36 0-.507-.106-.953-.32-1.34a2.279 2.279 0 0 0-.88-.9c-.373-.227-.806-.34-1.3-.34-.48 0-.906.113-1.28.34a2.292 2.292 0 0 0-.88.9c-.213.387-.32.833-.32 1.34 0 .507.107.96.32 1.36.214.387.507.693.88.92.374.213.8.32 1.28.32zm10.907 2.44c-.88 0-1.673-.22-2.38-.66a4.598 4.598 0 0 1-1.66-1.8c-.4-.76-.6-1.613-.6-2.56 0-.96.2-1.82.6-2.58.4-.76.953-1.36 1.66-1.8.707-.44 1.5-.66 2.38-.66.693 0 1.313.14 1.86.42.547.28.98.673 1.3 1.18.333.493.513 1.053.54 1.68v3.48a3.218 3.218 0 0 1-.54 1.7c-.32.493-.753.887-1.3 1.18-.547.28-1.167.42-1.86.42zm.48-2.42c.733 0 1.327-.24 1.78-.72.453-.493.68-1.127.68-1.9 0-.507-.107-.953-.32-1.34a2.13 2.13 0 0 0-.86-.92c-.36-.227-.787-.34-1.28-.34-.48 0-.907.113-1.28.34-.36.213-.647.52-.86.92-.2.387-.3.833-.3 1.34 0 .52.1.98.3 1.38.213.387.5.693.86.92.373.213.8.32 1.28.32zm2.32 2.22v-2.6l.42-2.36-.42-2.32v-2.38h2.6V27h-2.6zm4.918 0v-9.66h2.62V27h-2.62zm2.62-5.34l-1.02-.68c.12-1.187.466-2.12 1.04-2.8.573-.693 1.4-1.04 2.48-1.04.466 0 .886.08 1.26.24.373.147.713.393 1.02.74l-1.64 1.88a1.38 1.38 0 0 0-.54-.36 1.88 1.88 0 0 0-.7-.12c-.56 0-1.02.18-1.38.54-.347.347-.52.88-.52 1.6zm9.507 5.54c-.894 0-1.694-.22-2.4-.66a4.745 4.745 0 0 1-1.68-1.8c-.4-.76-.6-1.613-.6-2.56 0-.96.2-1.82.6-2.58.413-.76.966-1.36 1.66-1.8.706-.44 1.513-.66 2.42-.66.693 0 1.313.14 1.86.42.56.28 1.006.673 1.34 1.18.346.493.533 1.053.56 1.68v3.44a3.295 3.295 0 0 1-.54 1.7 3.54 3.54 0 0 1-1.34 1.2 3.99 3.99 0 0 1-1.88.44zm.44-2.42c.493 0 .92-.107 1.28-.32.373-.227.66-.533.86-.92.213-.4.32-.86.32-1.38 0-.507-.107-.953-.32-1.34a2.13 2.13 0 0 0-.86-.92c-.36-.227-.78-.34-1.26-.34-.494 0-.927.113-1.3.34a2.48 2.48 0 0 0-.86.92c-.2.387-.3.833-.3 1.34 0 .52.1.98.3 1.38.213.387.506.693.88.92.373.213.793.32 1.26.32zm4.92 2.22h-2.6v-2.6l.42-2.36-.44-2.32v-7.18h2.62V27z"/><g clip-path="url(#a)"><rect width="21.5" height="21.5" x="9.25" y="9.25" fill="#fff" stroke="#3C3F50" stroke-width="2.5" rx="2.75"/><path fill="#3C3F50" d="M15 16.236a1.236 1.236 0 0 1 2.473 0v6.528a1.236 1.236 0 1 1-2.473 0v-6.528zm3.824-.069c0-.645.553-1.167 1.236-1.167.683 0 1.237.522 1.237 1.167v3.225c0 .644-.554 1.167-1.237 1.167-.682 0-1.236-.523-1.236-1.167v-3.225zm3.703 3.441c0-.644.554-1.167 1.237-1.167.682 0 1.236.523 1.236 1.167v3.225c0 .645-.554 1.167-1.236 1.167-.683 0-1.237-.522-1.237-1.167v-3.225z"/></g><defs><clipPath id="a"><path fill="#fff" d="M0 0h40v40H0z"/></clipPath></defs></svg>