<svg xmlns="http://www.w3.org/2000/svg" width="19" height="20" fill="none" viewBox="0 0 19 20"><g stroke="#6AB187" stroke-linecap="round" stroke-linejoin="round" stroke-width="1.5" clip-path="url(#a)"><path d="M10.403 9.385H5.728m-3.897.002V5.75c0-1.605 1.286-2.904 2.876-2.904h4.38c1.589 0 2.874 1 2.874 2.605" opacity=".4"/><path d="M13.894 10.211c-.39.378-.577.96-.42 1.559.194.732.91 1.196 1.659 1.196h.725v1.141c0 1.74-1.395 3.148-3.117 3.148H4.948c-1.722 0-3.117-1.408-3.117-3.148V8.598c0-1.74 1.395-3.148 3.117-3.148h7.793c1.714 0 3.117 1.416 3.117 3.148v1.141h-.842c-.436 0-.834.173-1.122.472z"/><path d="M17.416 10.545v1.621a.804.804 0 0 1-.803.803H15.11c-.842 0-1.613-.622-1.684-1.472a1.59 1.59 0 0 1 .468-1.283 1.545 1.545 0 0 1 1.122-.472h1.597c.445 0 .803.362.803.803z"/></g><defs><clipPath id="a"><path fill="#fff" d="M0 0h18.7v18.89H0z" transform="translate(.273 .611)"/></clipPath></defs></svg>