<svg xmlns="http://www.w3.org/2000/svg" width="16" height="16" fill="none" viewBox="0 0 16 16"><path stroke="#fff" stroke-linecap="round" stroke-linejoin="round" stroke-miterlimit="10" stroke-width="1.5" d="M1.056 1h1.208c.75 0 1.34.646 1.278 1.389l-.577 6.917a1.942 1.942 0 0 0 1.938 2.104h7.396c1 0 1.875-.82 1.951-1.813l.375-5.208a1.926 1.926 0 0 0-1.951-2.09H3.708m2.209 2.868h8.333m-3.299 9.722a.868.868 0 1 0 0-1.736.868.868 0 0 0 0 1.736zm-5.555 0a.868.868 0 1 0 0-1.736.868.868 0 0 0 0 1.736z"/></svg>