<svg xmlns="http://www.w3.org/2000/svg" width="14" height="16" fill="none" viewBox="0 0 14 16"><path fill="#626786" d="M10.333 9.333a.667.667 0 0 1-.666.667H4.333a.667.667 0 1 1 0-1.333h5.334a.667.667 0 0 1 .666.666zm-2.666 2H4.333a.667.667 0 0 0 0 1.334h3.334a.667.667 0 0 0 0-1.334zm6-4.343v5.677A3.337 3.337 0 0 1 10.333 16H3.667a3.338 3.338 0 0 1-3.334-3.333V3.333A3.337 3.337 0 0 1 3.667 0h3.01a4.639 4.639 0 0 1 3.3 1.367l2.322 2.324a4.634 4.634 0 0 1 1.368 3.299zM9.034 2.31a3.34 3.34 0 0 0-.7-.52v2.877A.667.667 0 0 0 9 5.333h2.877a3.324 3.324 0 0 0-.52-.7L9.034 2.31zm3.3 4.68c0-.11-.022-.215-.032-.323H9a2 2 0 0 1-2-2V1.365c-.108-.01-.214-.032-.323-.032h-3.01a2 2 0 0 0-2 2v9.334a2 2 0 0 0 2 2h6.666a2 2 0 0 0 2-2V6.99z"/></svg>