<svg xmlns="http://www.w3.org/2000/svg" width="19" height="21" fill="none" viewBox="0 0 19 21"><path fill="#3C3F50" fill-rule="evenodd" d="M8.767 2.78c-3.373 0-6.108 2.952-6.108 6.593s2.735 6.593 6.108 6.593c3.373 0 6.107-2.952 6.107-6.593S12.14 2.78 8.767 2.78zM.624 9.373C.624 4.518 4.269.582 8.767.582c4.497 0 8.143 3.936 8.143 8.79 0 2.032-.638 3.903-1.71 5.392l3.448 3.722a1.163 1.163 0 0 1 0 1.554.966.966 0 0 1-1.44 0l-3.448-3.722c-1.379 1.157-3.111 1.846-4.993 1.846-4.497 0-8.143-3.936-8.143-8.791z" clip-rule="evenodd" opacity=".5"/></svg>