<svg xmlns="http://www.w3.org/2000/svg" width="14" height="17" fill="none" viewBox="0 0 14 17"><path stroke="#6AB187" stroke-linecap="round" stroke-linejoin="round" stroke-width="1.5" d="M12.86 15.278c0-2.688-2.647-4.861-5.906-4.861-3.26 0-5.906 2.173-5.906 4.86m5.906-6.944a3.42 3.42 0 0 0 2.43-1.017 3.49 3.49 0 0 0 1.008-2.455 3.49 3.49 0 0 0-1.007-2.455 3.42 3.42 0 0 0-2.431-1.017 3.42 3.42 0 0 0-2.431 1.017A3.49 3.49 0 0 0 3.516 4.86c0 .921.362 1.804 1.007 2.455a3.42 3.42 0 0 0 2.43 1.017z"/></svg>