<svg xmlns="http://www.w3.org/2000/svg" width="17" height="16" fill="none" viewBox="0 0 17 16"><path stroke="#6AB187" stroke-linecap="round" stroke-linejoin="round" stroke-width="1.5" d="M6.644 9.785c0 .896.68 1.618 1.526 1.618h1.726c.736 0 1.334-.632 1.334-1.41 0-.847-.365-1.146-.908-1.34l-2.77-.972c-.544-.195-.908-.494-.908-1.34 0-.779.598-1.41 1.333-1.41h1.726c.846 0 1.527.722 1.527 1.618M8.932 4v8.333"/><path stroke="#6AB187" stroke-linecap="round" stroke-linejoin="round" stroke-width="1.5" d="M8.569 14.889c3.797 0 6.875-3.11 6.875-6.945C15.444 4.11 12.367 1 8.57 1c-3.8 0-6.877 3.109-6.877 6.944 0 3.836 3.078 6.945 6.876 6.945z"/></svg>